  0
SECTION
  2
HEADER
  9
$ACADVER
  1
AC1014
  9
$HANDSEED
  5
FFFF
  9
$MEASUREMENT
 70
     1
  0
ENDSEC
  0
SECTION
  2
TABLES
  0
TABLE
  2
VPORT
  5
8
330
0
100
AcDbSymbolTable
 70
     4
  0
VPORT
  5
2E
330
8
100
AcDbSymbolTableRecord
100
AcDbViewportTableRecord
  2
*ACTIVE
 70
     0
 10
0.0
 20
0.0
 11
1.0
 21
1.0
 12
210.0
 22
148.5
 13
0.0
 23
0.0
 14
10.0
 24
10.0
 15
10.0
 25
10.0
 16
0.0
 26
0.0
 36
1.0
 17
0.0
 27
0.0
 37
0.0
 40
341.0
 41
1.24
 42
50.0
 43
0.0
 44
0.0
 50
0.0
 51
0.0
 71
     0
 72
   100
 73
     1
 74
     3
 75
     0
 76
     0
 77
     0
 78
     0
  0
ENDTAB
  0
TABLE
  2
LTYPE
  5
5
330
0
100
AcDbSymbolTable
 70
     1
  0
LTYPE
  5
14
330
5
100
AcDbSymbolTableRecord
100
AcDbLinetypeTableRecord
  2
BYBLOCK
 70
     0
  3

 72
    65
 73
     0
 40
0.0
  0
LTYPE
  5
15
330
5
100
AcDbSymbolTableRecord
100
AcDbLinetypeTableRecord
  2
BYLAYER
 70
     0
  3

 72
    65
 73
     0
 40
0.0
  0
LTYPE
  5
16
330
5
100
AcDbSymbolTableRecord
100
AcDbLinetypeTableRecord
  2
CONTINUOUS
 70
     0
  3
Solid line
 72
    65
 73
     0
 40
0.0
  0
ENDTAB
  0
TABLE
  2
LAYER
  5
2
100
AcDbSymbolTable
 70
1
  0
LAYER
  5
50
100
AcDbSymbolTableRecord
100
AcDbLayerTableRecord
  2
0
 70
0
  6
CONTINUOUS
  0
ENDTAB
  0
TABLE
  2
STYLE
  5
3
330
0
100
AcDbSymbolTable
 70
     1
  0
STYLE
  5
11
330
3
100
AcDbSymbolTableRecord
100
AcDbTextStyleTableRecord
  2
STANDARD
 70
     0
 40
0.0
 41
1.0
 50
0.0
 71
     0
 42
2.5
  3
txt
  4

  0
ENDTAB
  0
TABLE
  2
VIEW
  5
6
330
0
100
AcDbSymbolTable
 70
     0
  0
ENDTAB
  0
TABLE
  2
UCS
  5
7
330
0
100
AcDbSymbolTable
 70
     0
  0
ENDTAB
  0
TABLE
  2
APPID
  5
9
330
0
100
AcDbSymbolTable
 70
     2
  0
APPID
  5
12
330
9
100
AcDbSymbolTableRecord
100
AcDbRegAppTableRecord
  2
ACAD
 70
     0
  0
ENDTAB
  0
TABLE
  2
DIMSTYLE
  5
A
330
0
100
AcDbSymbolTable
 70
     1
  0
DIMSTYLE
105
27
330
A
100
AcDbSymbolTableRecord
100
AcDbDimStyleTableRecord
  2
ISO-25
 70
     0
  3

  4

  5

  6

  7

 40
1.0
 41
2.5
 42
0.625
 43
3.75
 44
1.25
 45
0.0
 46
0.0
 47
0.0
 48
0.0
140
2.5
141
2.5
142
0.0
143
0.03937007874016
144
1.0
145
0.0
146
1.0
147
0.625
 71
     0
 72
     0
 73
     0
 74
     0
 75
     0
 76
     0
 77
     1
 78
     8
170
     0
171
     3
172
     1
173
     0
174
     0
175
     0
176
     0
177
     0
178
     0
270
     2
271
     2
272
     2
273
     2
274
     3
340
11
275
     0
280
     0
281
     0
282
     0
283
     0
284
     8
285
     0
286
     0
287
     3
288
     0
  0
ENDTAB
  0
TABLE
  2
BLOCK_RECORD
  5
1
330
0
100
AcDbSymbolTable
 70
     1
  0
BLOCK_RECORD
  5
1F
330
1
100
AcDbSymbolTableRecord
100
AcDbBlockTableRecord
  2
*MODEL_SPACE
  0
BLOCK_RECORD
  5
1B
330
1
100
AcDbSymbolTableRecord
100
AcDbBlockTableRecord
  2
*PAPER_SPACE
  0
ENDTAB
  0
ENDSEC
  0
SECTION
  2
BLOCKS
  0
BLOCK
  5
20
330
1F
100
AcDbEntity
  8
0
100
AcDbBlockBegin
  2
*MODEL_SPACE
 70
     0
 10
0.0
 20
0.0
 30
0.0
  3
*MODEL_SPACE
  1

  0
ENDBLK
  5
21
330
1F
100
AcDbEntity
  8
0
100
AcDbBlockEnd
  0
BLOCK
  5
1C
330
1B
100
AcDbEntity
 67
     1
  8
0
100
AcDbBlockBegin
  2
*PAPER_SPACE
  1

  0
ENDBLK
  5
1D
330
1B
100
AcDbEntity
 67
     1
  8
0
100
AcDbBlockEnd
  0
ENDSEC
  0
SECTION
  2
ENTITIES
  0
LWPOLYLINE
  5
100
100
AcDbEntity
  8
0
 62
7
100
AcDbPolyline
 90
77
 70
1
 10
1.175258
 20
0.004410
 30
0.0
 10
1.083128
 20
0.018435
 30
0.0
 10
0.956197
 20
0.053085
 30
0.0
 10
0.952448
 20
0.156263
 30
0.0
 10
0.952448
 20
0.256552
 30
0.0
 10
0.824655
 20
0.256552
 30
0.0
 10
0.696870
 20
0.256552
 30
0.0
 10
0.644445
 20
0.363563
 30
0.0
 10
0.568253
 20
0.518768
 30
0.0
 10
0.461543
 20
0.656018
 30
0.0
 10
0.350798
 20
0.673193
 30
0.0
 10
0.289148
 20
0.673230
 30
0.0
 10
0.289148
 20
0.464873
 30
0.0
 10
0.289148
 20
0.256523
 30
0.0
 10
0.144570
 20
0.256523
 30
0.0
 10
0.000000
 20
0.256523
 30
0.0
 10
0.000000
 20
0.813765
 30
0.0
 10
0.000000
 20
1.371008
 30
0.0
 10
0.265755
 20
1.369508
 30
0.0
 10
0.656040
 20
1.344383
 30
0.0
 10
0.841170
 20
1.197098
 30
0.0
 10
0.849345
 20
0.951833
 30
0.0
 10
0.693202
 20
0.791648
 30
0.0
 10
0.663427
 20
0.777923
 30
0.0
 10
0.696652
 20
0.759698
 30
0.0
 10
0.754252
 20
0.718598
 30
0.0
 10
0.858217
 20
0.558255
 30
0.0
 10
1.004992
 20
0.256448
 30
0.0
 10
1.085947
 20
0.225248
 30
0.0
 10
1.441837
 20
0.235223
 30
0.0
 10
1.501687
 20
0.359970
 30
0.0
 10
1.425135
 20
0.468525
 30
0.0
 10
1.230938
 20
0.499275
 30
0.0
 10
1.142310
 20
0.500775
 30
0.0
 10
1.143060
 20
0.593228
 30
0.0
 10
1.143802
 20
0.685688
 30
0.0
 10
1.237350
 20
0.687938
 30
0.0
 10
1.407232
 20
0.712688
 30
0.0
 10
1.476832
 20
0.822495
 30
0.0
 10
1.345920
 20
0.949935
 30
0.0
 10
1.190557
 20
0.946935
 30
0.0
 10
1.041352
 20
0.908535
 30
0.0
 10
1.005577
 20
0.895260
 30
0.0
 10
1.000328
 20
1.000305
 30
0.0
 10
1.000328
 20
1.106828
 30
0.0
 10
1.010977
 20
1.109828
 30
0.0
 10
1.152007
 20
1.139528
 30
0.0
 10
1.543027
 20
1.132778
 30
0.0
 10
1.700437
 20
1.051058
 30
0.0
 10
1.761862
 20
0.935685
 30
0.0
 10
1.761787
 20
0.799830
 30
0.0
 10
1.706587
 20
0.695505
 30
0.0
 10
1.599877
 20
0.629505
 30
0.0
 10
1.580002
 20
0.618255
 30
0.0
 10
1.614052
 20
0.605280
 30
0.0
 10
1.777545
 20
0.444038
 30
0.0
 10
1.785270
 20
0.422813
 30
0.0
 10
1.785427
 20
0.863160
 30
0.0
 10
1.785585
 20
1.303508
 30
0.0
 10
2.015910
 20
1.302008
 30
0.0
 10
2.246235
 20
1.300508
 30
0.0
 10
2.322773
 20
1.291433
 30
0.0
 10
2.496203
 20
1.256783
 30
0.0
 10
2.709218
 20
1.114335
 30
0.0
 10
2.831475
 20
0.831945
 30
0.0
 10
2.831445
 20
0.659543
 30
0.0
 10
2.754953
 20
0.433590
 30
0.0
 10
2.570813
 20
0.264165
 30
0.0
 10
1.936538
 20
0.187410
 30
0.0
 10
1.785593
 20
0.189660
 30
0.0
 10
1.785465
 20
0.219660
 30
0.0
 10
1.785338
 20
0.249660
 30
0.0
 10
1.778588
 20
0.229785
 30
0.0
 10
1.692615
 20
0.103028
 30
0.0
 10
1.453087
 20
0.008250
 30
0.0
 10
1.316130
 20
0.000000
 30
0.0
 10
1.174470
 20
0.004500
 30
0.0
  0
LWPOLYLINE
  5
101
100
AcDbEntity
  8
0
 62
7
100
AcDbPolyline
 90
11
 70
1
 10
2.289233
 20
0.417728
 30
0.0
 10
2.427308
 20
0.480203
 30
0.0
 10
2.530613
 20
0.665190
 30
0.0
 10
2.530328
 20
0.827768
 30
0.0
 10
2.377110
 20
1.041218
 30
0.0
 10
2.142945
 20
1.081493
 30
0.0
 10
2.078070
 20
1.081493
 30
0.0
 10
2.078070
 20
0.745343
 30
0.0
 10
2.078070
 20
0.409185
 30
0.0
 10
2.170905
 20
0.410685
 30
0.0
 10
2.289255
 20
0.418185
 30
0.0
  0
LWPOLYLINE
  5
102
100
AcDbEntity
  8
0
 62
7
100
AcDbPolyline
 90
11
 70
1
 10
0.476415
 20
0.884153
 30
0.0
 10
0.541590
 20
0.916853
 30
0.0
 10
0.572640
 20
0.988327
 30
0.0
 10
0.563790
 20
1.089142
 30
0.0
 10
0.474713
 20
1.153717
 30
0.0
 10
0.373620
 20
1.158217
 30
0.0
 10
0.292125
 20
1.158270
 30
0.0
 10
0.292125
 20
1.017637
 30
0.0
 10
0.292125
 20
0.877012
 30
0.0
 10
0.375038
 20
0.878512
 30
0.0
 10
0.476378
 20
0.884513
 30
0.0
  0
ENDSEC
  0
SECTION
  2
OBJECTS
  0
DICTIONARY
  5
C
330
0
100
AcDbDictionary
  3
ACAD_GROUP
350
D
  3
ACAD_MLINESTYLE
350
17
  0
DICTIONARY
  5
D
330
C
100
AcDbDictionary
  0
DICTIONARY
  5
1A
330
C
100
AcDbDictionary
  0
DICTIONARY
  5
17
330
C
100
AcDbDictionary
  3
STANDARD
350
18
  0
DICTIONARY
  5
19
330
C
100
AcDbDictionary
  0
ENDSEC
  0
EOF
