  0
SECTION
  2
HEADER
  9
$ACADVER
  1
AC1014
  9
$HANDSEED
  5
FFFF
  9
$MEASUREMENT
 70
     1
  0
ENDSEC
  0
SECTION
  2
TABLES
  0
TABLE
  2
VPORT
  5
8
330
0
100
AcDbSymbolTable
 70
     4
  0
VPORT
  5
2E
330
8
100
AcDbSymbolTableRecord
100
AcDbViewportTableRecord
  2
*ACTIVE
 70
     0
 10
0.0
 20
0.0
 11
1.0
 21
1.0
 12
210.0
 22
148.5
 13
0.0
 23
0.0
 14
10.0
 24
10.0
 15
10.0
 25
10.0
 16
0.0
 26
0.0
 36
1.0
 17
0.0
 27
0.0
 37
0.0
 40
341.0
 41
1.24
 42
50.0
 43
0.0
 44
0.0
 50
0.0
 51
0.0
 71
     0
 72
   100
 73
     1
 74
     3
 75
     0
 76
     0
 77
     0
 78
     0
  0
ENDTAB
  0
TABLE
  2
LTYPE
  5
5
330
0
100
AcDbSymbolTable
 70
     1
  0
LTYPE
  5
14
330
5
100
AcDbSymbolTableRecord
100
AcDbLinetypeTableRecord
  2
BYBLOCK
 70
     0
  3

 72
    65
 73
     0
 40
0.0
  0
LTYPE
  5
15
330
5
100
AcDbSymbolTableRecord
100
AcDbLinetypeTableRecord
  2
BYLAYER
 70
     0
  3

 72
    65
 73
     0
 40
0.0
  0
LTYPE
  5
16
330
5
100
AcDbSymbolTableRecord
100
AcDbLinetypeTableRecord
  2
CONTINUOUS
 70
     0
  3
Solid line
 72
    65
 73
     0
 40
0.0
  0
ENDTAB
  0
TABLE
  2
LAYER
  5
2
100
AcDbSymbolTable
 70
1
  0
LAYER
  5
50
100
AcDbSymbolTableRecord
100
AcDbLayerTableRecord
  2
0
 70
0
  6
CONTINUOUS
  0
ENDTAB
  0
TABLE
  2
STYLE
  5
3
330
0
100
AcDbSymbolTable
 70
     1
  0
STYLE
  5
11
330
3
100
AcDbSymbolTableRecord
100
AcDbTextStyleTableRecord
  2
STANDARD
 70
     0
 40
0.0
 41
1.0
 50
0.0
 71
     0
 42
2.5
  3
txt
  4

  0
ENDTAB
  0
TABLE
  2
VIEW
  5
6
330
0
100
AcDbSymbolTable
 70
     0
  0
ENDTAB
  0
TABLE
  2
UCS
  5
7
330
0
100
AcDbSymbolTable
 70
     0
  0
ENDTAB
  0
TABLE
  2
APPID
  5
9
330
0
100
AcDbSymbolTable
 70
     2
  0
APPID
  5
12
330
9
100
AcDbSymbolTableRecord
100
AcDbRegAppTableRecord
  2
ACAD
 70
     0
  0
ENDTAB
  0
TABLE
  2
DIMSTYLE
  5
A
330
0
100
AcDbSymbolTable
 70
     1
  0
DIMSTYLE
105
27
330
A
100
AcDbSymbolTableRecord
100
AcDbDimStyleTableRecord
  2
ISO-25
 70
     0
  3

  4

  5

  6

  7

 40
1.0
 41
2.5
 42
0.625
 43
3.75
 44
1.25
 45
0.0
 46
0.0
 47
0.0
 48
0.0
140
2.5
141
2.5
142
0.0
143
0.03937007874016
144
1.0
145
0.0
146
1.0
147
0.625
 71
     0
 72
     0
 73
     0
 74
     0
 75
     0
 76
     0
 77
     1
 78
     8
170
     0
171
     3
172
     1
173
     0
174
     0
175
     0
176
     0
177
     0
178
     0
270
     2
271
     2
272
     2
273
     2
274
     3
340
11
275
     0
280
     0
281
     0
282
     0
283
     0
284
     8
285
     0
286
     0
287
     3
288
     0
  0
ENDTAB
  0
TABLE
  2
BLOCK_RECORD
  5
1
330
0
100
AcDbSymbolTable
 70
     1
  0
BLOCK_RECORD
  5
1F
330
1
100
AcDbSymbolTableRecord
100
AcDbBlockTableRecord
  2
*MODEL_SPACE
  0
BLOCK_RECORD
  5
1B
330
1
100
AcDbSymbolTableRecord
100
AcDbBlockTableRecord
  2
*PAPER_SPACE
  0
ENDTAB
  0
ENDSEC
  0
SECTION
  2
BLOCKS
  0
BLOCK
  5
20
330
1F
100
AcDbEntity
  8
0
100
AcDbBlockBegin
  2
*MODEL_SPACE
 70
     0
 10
0.0
 20
0.0
 30
0.0
  3
*MODEL_SPACE
  1

  0
ENDBLK
  5
21
330
1F
100
AcDbEntity
  8
0
100
AcDbBlockEnd
  0
BLOCK
  5
1C
330
1B
100
AcDbEntity
 67
     1
  8
0
100
AcDbBlockBegin
  2
*PAPER_SPACE
  1

  0
ENDBLK
  5
1D
330
1B
100
AcDbEntity
 67
     1
  8
0
100
AcDbBlockEnd
  0
ENDSEC
  0
SECTION
  2
ENTITIES
  0
LWPOLYLINE
  5
100
100
AcDbEntity
  8
0
 62
7
100
AcDbPolyline
 90
308
 70
1
 10
352.671383
 20
-5.676668
 30
0.0
 10
346.577685
 20
-4.930755
 30
0.0
 10
339.950753
 20
-3.984262
 30
0.0
 10
333.590385
 20
-2.958645
 30
0.0
 10
328.296383
 20
-1.975358
 30
0.0
 10
318.231300
 20
0.317257
 30
0.0
 10
307.595183
 20
3.069577
 30
0.0
 10
298.914015
 20
5.591873
 30
0.0
 10
294.713813
 20
7.194412
 30
0.0
 10
294.264458
 20
8.849910
 30
0.0
 10
293.975850
 20
13.444283
 30
0.0
 10
293.821838
 20
21.738405
 30
0.0
 10
293.776313
 20
34.493145
 30
0.0
 10
293.776313
 20
41.126438
 30
0.0
 10
293.776313
 20
47.759730
 30
0.0
 10
293.776313
 20
54.393022
 30
0.0
 10
293.776313
 20
61.026315
 30
0.0
 10
285.324112
 20
61.026315
 30
0.0
 10
276.871912
 20
61.026315
 30
0.0
 10
268.419712
 20
61.026315
 30
0.0
 10
259.967512
 20
61.026315
 30
0.0
 10
251.515312
 20
61.026315
 30
0.0
 10
243.063112
 20
61.026315
 30
0.0
 10
234.610912
 20
61.026315
 30
0.0
 10
226.158712
 20
61.026315
 30
0.0
 10
222.688875
 20
68.104440
 30
0.0
 10
219.219045
 20
75.182565
 30
0.0
 10
215.749207
 20
82.260690
 30
0.0
 10
212.279377
 20
89.338815
 30
0.0
 10
206.394915
 20
101.338080
 30
0.0
 10
200.632935
 20
113.079832
 30
0.0
 10
195.654832
 20
123.216697
 30
0.0
 10
192.122032
 20
130.401315
 30
0.0
 10
184.643205
 20
144.451672
 30
0.0
 10
177.759277
 20
154.782817
 30
0.0
 10
170.998282
 20
162.001792
 30
0.0
 10
163.888252
 20
166.715632
 30
0.0
 10
158.354670
 20
169.139242
 30
0.0
 10
152.879145
 20
170.511195
 30
0.0
 10
145.583310
 20
171.123315
 30
0.0
 10
134.588812
 20
171.267412
 30
0.0
 10
130.510687
 20
171.269662
 30
0.0
 10
126.432562
 20
171.271912
 30
0.0
 10
122.354437
 20
171.274162
 30
0.0
 10
118.276312
 20
171.276412
 30
0.0
 10
118.276312
 20
157.495162
 30
0.0
 10
118.276312
 20
143.713912
 30
0.0
 10
118.276312
 20
129.932662
 30
0.0
 10
118.276312
 20
116.151412
 30
0.0
 10
118.276312
 20
102.370162
 30
0.0
 10
118.276312
 20
88.588912
 30
0.0
 10
118.276312
 20
74.807662
 30
0.0
 10
118.276312
 20
61.026412
 30
0.0
 10
108.713812
 20
61.026412
 30
0.0
 10
99.151312
 20
61.026412
 30
0.0
 10
89.588812
 20
61.026412
 30
0.0
 10
80.026312
 20
61.026412
 30
0.0
 10
70.463813
 20
61.026412
 30
0.0
 10
60.901314
 20
61.026412
 30
0.0
 10
51.338815
 20
61.026412
 30
0.0
 10
41.776316
 20
61.026412
 30
0.0
 10
41.776316
 20
97.884412
 30
0.0
 10
41.776316
 20
134.742420
 30
0.0
 10
41.776316
 20
171.600427
 30
0.0
 10
41.776316
 20
208.458427
 30
0.0
 10
41.776316
 20
245.316360
 30
0.0
 10
41.776316
 20
282.174375
 30
0.0
 10
41.776316
 20
319.032385
 30
0.0
 10
41.776316
 20
355.890395
 30
0.0
 10
59.354440
 20
355.806361
 30
0.0
 10
76.932563
 20
355.722326
 30
0.0
 10
94.510688
 20
355.638291
 30
0.0
 10
112.088813
 20
355.554257
 30
0.0
 10
158.683905
 20
355.223162
 30
0.0
 10
185.239987
 20
354.401916
 30
0.0
 10
201.034920
 20
352.492257
 30
0.0
 10
215.346555
 20
348.895923
 30
0.0
 10
232.404458
 20
342.641154
 30
0.0
 10
246.054098
 20
334.220681
 30
0.0
 10
256.595295
 20
323.395982
 30
0.0
 10
264.327870
 20
309.928538
 30
0.0
 10
268.776945
 20
295.006455
 30
0.0
 10
270.663023
 20
277.933995
 30
0.0
 10
269.921992
 20
260.636010
 30
0.0
 10
266.489722
 20
245.037352
 30
0.0
 10
260.153520
 20
231.388582
 30
0.0
 10
251.131455
 20
219.750435
 30
0.0
 10
239.460472
 20
210.160807
 30
0.0
 10
225.177510
 20
202.657598
 30
0.0
 10
222.121785
 20
201.363653
 30
0.0
 10
219.617347
 20
200.247690
 30
0.0
 10
217.922790
 20
199.428862
 30
0.0
 10
217.296690
 20
199.026315
 30
0.0
 10
217.986450
 20
198.529440
 30
0.0
 10
219.874680
 20
197.453767
 30
0.0
 10
222.672773
 20
195.957675
 30
0.0
 10
226.092135
 20
194.199547
 30
0.0
 10
230.910833
 20
191.655277
 30
0.0
 10
234.484080
 20
189.402930
 30
0.0
 10
237.669638
 20
186.830137
 30
0.0
 10
241.325258
 20
183.324547
 30
0.0
 10
247.798590
 20
175.998330
 30
0.0
 10
254.346968
 20
166.784715
 30
0.0
 10
261.261172
 20
155.235202
 30
0.0
 10
268.832018
 20
140.901315
 30
0.0
 10
281.603010
 20
115.270147
 30
0.0
 10
294.283478
 20
89.406000
 30
0.0
 10
303.946740
 20
69.326737
 30
0.0
 10
307.666103
 20
61.050247
 30
0.0
 10
309.549427
 20
59.867700
 30
0.0
 10
314.776965
 20
57.700620
 30
0.0
 10
321.803348
 20
55.144657
 30
0.0
 10
329.083185
 20
52.795447
 30
0.0
 10
356.668980
 20
46.786935
 30
0.0
 10
382.680615
 20
45.254287
 30
0.0
 10
405.433725
 20
48.150405
 30
0.0
 10
423.243938
 20
55.428202
 30
0.0
 10
430.739123
 20
61.631092
 30
0.0
 10
435.858720
 20
69.159015
 30
0.0
 10
438.631950
 20
78.072832
 30
0.0
 10
439.088025
 20
88.433385
 30
0.0
 10
437.328075
 20
97.367212
 30
0.0
 10
433.294523
 20
105.233325
 30
0.0
 10
427.094295
 20
111.880095
 30
0.0
 10
418.834305
 20
117.155910
 30
0.0
 10
409.743458
 20
120.908715
 30
0.0
 10
399.596288
 20
123.285195
 30
0.0
 10
386.222978
 20
124.628505
 30
0.0
 10
367.453695
 20
125.281800
 30
0.0
 10
361.591793
 20
125.393460
 30
0.0
 10
355.729883
 20
125.505112
 30
0.0
 10
349.867980
 20
125.616765
 30
0.0
 10
344.006078
 20
125.728425
 30
0.0
 10
344.055503
 20
131.843790
 30
0.0
 10
344.104928
 20
137.959148
 30
0.0
 10
344.154353
 20
144.074505
 30
0.0
 10
344.203778
 20
150.189870
 30
0.0
 10
344.253203
 20
156.305235
 30
0.0
 10
344.302628
 20
162.420593
 30
0.0
 10
344.352053
 20
168.535950
 30
0.0
 10
344.401478
 20
174.651315
 30
0.0
 10
350.588978
 20
174.777593
 30
0.0
 10
356.776478
 20
174.903870
 30
0.0
 10
362.963978
 20
175.030140
 30
0.0
 10
369.151478
 20
175.156418
 30
0.0
 10
386.733907
 20
175.705650
 30
0.0
 10
398.365613
 20
176.729895
 30
0.0
 10
406.627058
 20
178.605293
 30
0.0
 10
414.098715
 20
181.707968
 30
0.0
 10
422.278185
 20
186.876728
 30
0.0
 10
428.014883
 20
193.347615
 30
0.0
 10
431.398215
 20
201.261645
 30
0.0
 10
432.517575
 20
210.759810
 30
0.0
 10
430.273575
 20
223.030493
 30
0.0
 10
423.624983
 20
232.865235
 30
0.0
 10
412.763925
 20
240.077003
 30
0.0
 10
397.882500
 20
244.478783
 30
0.0
 10
389.717175
 20
245.249018
 30
0.0
 10
379.079033
 20
245.349908
 30
0.0
 10
367.566120
 20
244.812915
 30
0.0
 10
356.776478
 20
243.669495
 30
0.0
 10
347.244368
 20
241.933028
 30
0.0
 10
336.586838
 20
239.428350
 30
0.0
 10
326.155305
 20
236.503388
 30
0.0
 10
317.301173
 20
233.506095
 30
0.0
 10
314.033235
 20
232.262873
 30
0.0
 10
311.159903
 20
231.186023
 30
0.0
 10
308.991660
 20
230.390820
 30
0.0
 10
307.838978
 20
229.992555
 30
0.0
 10
307.113450
 20
230.454765
 30
0.0
 10
306.720105
 20
233.816918
 30
0.0
 10
306.558075
 20
242.214983
 30
0.0
 10
306.526500
 20
257.784930
 30
0.0
 10
306.526500
 20
264.830820
 30
0.0
 10
306.526500
 20
271.876718
 30
0.0
 10
306.526500
 20
278.922608
 30
0.0
 10
306.526500
 20
285.968498
 30
0.0
 10
307.229625
 20
286.157715
 30
0.0
 10
307.932750
 20
286.346925
 30
0.0
 10
308.635875
 20
286.536143
 30
0.0
 10
309.339000
 20
286.725353
 30
0.0
 10
316.222358
 20
288.334478
 30
0.0
 10
327.166088
 20
290.692125
 30
0.0
 10
338.524403
 20
293.030588
 30
0.0
 10
346.651500
 20
294.582195
 30
0.0
 10
373.332510
 20
297.657893
 30
0.0
 10
401.262278
 20
298.344383
 30
0.0
 10
427.749893
 20
296.689560
 30
0.0
 10
450.104430
 20
292.741320
 30
0.0
 10
462.919605
 20
288.720428
 30
0.0
 10
474.105338
 20
283.790753
 30
0.0
 10
483.702555
 20
277.931040
 30
0.0
 10
491.752185
 20
271.120043
 30
0.0
 10
497.069033
 20
264.836715
 30
0.0
 10
501.660458
 20
257.448713
 30
0.0
 10
505.361873
 20
249.265080
 30
0.0
 10
508.008690
 20
240.594855
 30
0.0
 10
509.098673
 20
232.679295
 30
0.0
 10
509.458170
 20
222.702780
 30
0.0
 10
509.088240
 20
212.686410
 30
0.0
 10
507.989940
 20
204.651315
 30
0.0
 10
505.686555
 20
196.720200
 30
0.0
 10
502.564035
 20
189.626490
 30
0.0
 10
498.503025
 20
183.144608
 30
0.0
 10
493.384155
 20
177.048968
 30
0.0
 10
487.591305
 20
171.650640
 30
0.0
 10
481.181558
 20
167.082045
 30
0.0
 10
473.814945
 20
163.132988
 30
0.0
 10
465.151515
 20
159.593280
 30
0.0
 10
461.974845
 20
158.393738
 30
0.0
 10
460.143068
 20
157.555245
 30
0.0
 10
459.503018
 20
156.990870
 30
0.0
 10
459.901515
 20
156.613665
 30
0.0
 10
461.075738
 20
156.175875
 30
0.0
 10
463.164015
 20
155.383792
 30
0.0
 10
465.871043
 20
154.349865
 30
0.0
 10
468.901515
 20
153.186547
 30
0.0
 10
483.835973
 20
145.846260
 30
0.0
 10
495.951240
 20
136.360815
 30
0.0
 10
505.355850
 20
124.623180
 30
0.0
 10
512.158320
 20
110.526315
 30
0.0
 10
512.666888
 20
109.120065
 30
0.0
 10
513.175455
 20
107.713815
 30
0.0
 10
513.684015
 20
106.307565
 30
0.0
 10
514.192583
 20
104.901315
 30
0.0
 10
514.203083
 20
134.027460
 30
0.0
 10
514.213583
 20
163.153605
 30
0.0
 10
514.224083
 20
192.279742
 30
0.0
 10
514.234583
 20
221.405887
 30
0.0
 10
514.245083
 20
250.532032
 30
0.0
 10
514.255583
 20
279.658177
 30
0.0
 10
514.266083
 20
308.784315
 30
0.0
 10
514.276583
 20
337.910461
 30
0.0
 10
529.510958
 20
337.828956
 30
0.0
 10
544.745333
 20
337.747450
 30
0.0
 10
559.979708
 20
337.665946
 30
0.0
 10
575.214083
 20
337.584440
 30
0.0
 10
590.448458
 20
337.502935
 30
0.0
 10
605.682833
 20
337.421430
 30
0.0
 10
620.917208
 20
337.339924
 30
0.0
 10
636.151583
 20
337.258419
 30
0.0
 10
641.214083
 20
336.658742
 30
0.0
 10
646.276583
 20
336.059064
 30
0.0
 10
651.339083
 20
335.459386
 30
0.0
 10
656.401583
 20
334.859709
 30
0.0
 10
671.338680
 20
332.911178
 30
0.0
 10
683.083088
 20
330.910885
 30
0.0
 10
692.957978
 20
328.594645
 30
0.0
 10
702.286500
 20
325.698275
 30
0.0
 10
718.136940
 20
319.121099
 30
0.0
 10
732.693390
 20
310.727737
 30
0.0
 10
746.136218
 20
300.397567
 30
0.0
 10
758.645850
 20
288.009960
 30
0.0
 10
770.655375
 20
272.204985
 30
0.0
 10
780.083400
 20
254.405820
 30
0.0
 10
786.878925
 20
234.730230
 30
0.0
 10
790.991025
 20
213.295987
 30
0.0
 10
791.562450
 20
204.014655
 30
0.0
 10
791.751225
 20
190.916332
 30
0.0
 10
791.558025
 20
177.604897
 30
0.0
 10
790.983525
 20
167.684257
 30
0.0
 10
788.287200
 20
151.282560
 30
0.0
 10
783.913575
 20
135.550440
 30
0.0
 10
778.015425
 20
120.939487
 30
0.0
 10
770.745750
 20
107.901315
 30
0.0
 10
760.808100
 20
94.698067
 30
0.0
 10
749.047065
 20
82.523700
 30
0.0
 10
735.955658
 20
71.831790
 30
0.0
 10
722.026808
 20
63.075907
 30
0.0
 10
696.355875
 20
52.666440
 30
0.0
 10
662.914110
 20
46.185285
 30
0.0
 10
617.075573
 20
43.072635
 30
0.0
 10
554.214308
 20
42.768697
 30
0.0
 10
544.229933
 20
42.893827
 30
0.0
 10
534.245558
 20
43.018965
 30
0.0
 10
524.261183
 20
43.144095
 30
0.0
 10
514.276808
 20
43.269225
 30
0.0
 10
514.268408
 20
45.254490
 30
0.0
 10
514.260008
 20
47.239747
 30
0.0
 10
514.251608
 20
49.225012
 30
0.0
 10
514.243208
 20
51.210270
 30
0.0
 10
514.234808
 20
53.195535
 30
0.0
 10
514.226408
 20
55.180792
 30
0.0
 10
514.218008
 20
57.166057
 30
0.0
 10
514.209608
 20
59.151315
 30
0.0
 10
513.783728
 20
57.838815
 30
0.0
 10
513.357840
 20
56.526315
 30
0.0
 10
512.931960
 20
55.213815
 30
0.0
 10
512.506073
 20
53.901315
 30
0.0
 10
508.634745
 20
44.598210
 30
0.0
 10
503.269155
 20
35.489062
 30
0.0
 10
496.835115
 20
27.201682
 30
0.0
 10
489.758460
 20
20.363857
 30
0.0
 10
477.035670
 20
11.508525
 30
0.0
 10
462.740085
 20
4.578427
 30
0.0
 10
446.110553
 20
-0.727612
 30
0.0
 10
426.385920
 20
-4.710757
 30
0.0
 10
419.128005
 20
-5.755365
 30
0.0
 10
412.211723
 20
-6.375240
 30
0.0
 10
403.323990
 20
-6.710100
 30
0.0
 10
390.151717
 20
-6.899693
 30
0.0
 10
377.459617
 20
-6.965468
 30
0.0
 10
368.134762
 20
-6.821145
 30
0.0
 10
360.448395
 20
-6.410348
 30
0.0
 10
352.671787
 20
-5.676683
 30
0.0
 10
352.671713
 20
-5.676683
 30
0.0
 10
352.671645
 20
-5.676683
 30
0.0
 10
352.671570
 20
-5.676683
 30
0.0
  0
LWPOLYLINE
  5
101
100
AcDbEntity
  8
0
 62
7
100
AcDbPolyline
 90
40
 70
1
 10
647.401312
 20
103.674832
 30
0.0
 10
658.376572
 20
106.757505
 30
0.0
 10
667.969327
 20
110.468827
 30
0.0
 10
676.410862
 20
114.913387
 30
0.0
 10
683.932462
 20
120.195787
 30
0.0
 10
693.772087
 20
129.740153
 30
0.0
 10
701.541705
 20
140.961570
 30
0.0
 10
707.339333
 20
154.035570
 30
0.0
 10
711.262995
 20
169.137675
 30
0.0
 10
712.259723
 20
178.671188
 30
0.0
 10
712.575945
 20
190.973467
 30
0.0
 10
712.216815
 20
203.111265
 30
0.0
 10
711.187485
 20
212.151315
 30
0.0
 10
705.497085
 20
231.241972
 30
0.0
 10
697.030058
 20
246.758910
 30
0.0
 10
685.507703
 20
259.090410
 30
0.0
 10
670.651313
 20
268.624755
 30
0.0
 10
658.499438
 20
273.621240
 30
0.0
 10
644.992763
 20
276.912472
 30
0.0
 10
628.826753
 20
278.722732
 30
0.0
 10
608.696850
 20
279.276315
 30
0.0
 10
604.404217
 20
279.276315
 30
0.0
 10
600.111578
 20
279.276315
 30
0.0
 10
595.818945
 20
279.276315
 30
0.0
 10
591.526312
 20
279.276315
 30
0.0
 10
591.526312
 20
257.042040
 30
0.0
 10
591.526312
 20
234.807765
 30
0.0
 10
591.526312
 20
212.573490
 30
0.0
 10
591.526312
 20
190.339215
 30
0.0
 10
591.526312
 20
168.104940
 30
0.0
 10
591.526312
 20
145.870672
 30
0.0
 10
591.526312
 20
123.636397
 30
0.0
 10
591.526312
 20
101.402123
 30
0.0
 10
597.666937
 20
101.484810
 30
0.0
 10
603.807562
 20
101.567490
 30
0.0
 10
609.948187
 20
101.650177
 30
0.0
 10
616.088812
 20
101.732857
 30
0.0
 10
629.340982
 20
101.958982
 30
0.0
 10
637.677172
 20
102.277402
 30
0.0
 10
643.047307
 20
102.809040
 30
0.0
  0
LWPOLYLINE
  5
102
100
AcDbEntity
  8
0
 62
7
100
AcDbPolyline
 90
44
 70
1
 10
167.776312
 20
227.079150
 30
0.0
 10
173.479185
 20
228.722467
 30
0.0
 10
177.947685
 20
230.557042
 30
0.0
 10
181.642942
 20
232.813987
 30
0.0
 10
185.026102
 20
235.724408
 30
0.0
 10
188.265787
 20
239.445885
 30
0.0
 10
190.581607
 20
243.529815
 30
0.0
 10
192.174510
 20
248.438483
 30
0.0
 10
193.245412
 20
254.634158
 30
0.0
 10
193.610002
 20
261.318323
 30
0.0
 10
193.276372
 20
268.730768
 30
0.0
 10
192.341827
 20
275.763098
 30
0.0
 10
190.903687
 20
281.306895
 30
0.0
 10
187.562535
 20
287.086110
 30
0.0
 10
182.327520
 20
292.001895
 30
0.0
 10
175.488577
 20
295.843950
 30
0.0
 10
167.335642
 20
298.401975
 30
0.0
 10
163.784760
 20
298.918748
 30
0.0
 10
158.528542
 20
299.260215
 30
0.0
 10
150.989175
 20
299.450393
 30
0.0
 10
140.588812
 20
299.513318
 30
0.0
 10
135.198187
 20
299.516318
 30
0.0
 10
129.807562
 20
299.519318
 30
0.0
 10
124.416937
 20
299.522318
 30
0.0
 10
119.026312
 20
299.525318
 30
0.0
 10
119.026312
 20
290.223555
 30
0.0
 10
119.026312
 20
280.921800
 30
0.0
 10
119.026312
 20
271.620045
 30
0.0
 10
119.026312
 20
262.318283
 30
0.0
 10
119.026312
 20
253.016520
 30
0.0
 10
119.026312
 20
243.714765
 30
0.0
 10
119.026312
 20
234.413003
 30
0.0
 10
119.026312
 20
225.111240
 30
0.0
 10
124.510687
 20
225.204172
 30
0.0
 10
129.995062
 20
225.297097
 30
0.0
 10
135.479437
 20
225.390030
 30
0.0
 10
140.963812
 20
225.482962
 30
0.0
 10
151.715782
 20
225.720547
 30
0.0
 10
159.270075
 20
226.035945
 30
0.0
 10
164.374357
 20
226.473660
 30
0.0
 10
167.776312
 20
227.078152
 30
0.0
 10
167.776312
 20
227.078145
 30
0.0
 10
167.776312
 20
227.078137
 30
0.0
 10
167.776312
 20
227.078130
 30
0.0
  0
ENDSEC
  0
SECTION
  2
OBJECTS
  0
DICTIONARY
  5
C
330
0
100
AcDbDictionary
  3
ACAD_GROUP
350
D
  3
ACAD_MLINESTYLE
350
17
  0
DICTIONARY
  5
D
330
C
100
AcDbDictionary
  0
DICTIONARY
  5
1A
330
C
100
AcDbDictionary
  0
DICTIONARY
  5
17
330
C
100
AcDbDictionary
  3
STANDARD
350
18
  0
DICTIONARY
  5
19
330
C
100
AcDbDictionary
  0
ENDSEC
  0
EOF
